<?xml version="1.0" encoding="utf-8"?>
<!-- Generator: Adobe Illustrator 27.5.0, SVG Export Plug-In . SVG Version: 6.00 Build 0)  -->
<svg version="1.1" id="Layer_1" xmlns="http://www.w3.org/2000/svg" xmlns:xlink="http://www.w3.org/1999/xlink" x="0px" y="0px"
	 viewBox="0 0 4000 4000" style="enable-background:new 0 0 4000 4000;" xml:space="preserve">
<g>
	<g>
		<g>
			<path style="fill:#040A56;" d="M1295.744,2123.01l0.006-0.036c-106.047-59.197-386.135-86.634-493.791-52.869l-0.006,0.082
				c-106.507,28.738-202.324,146.651-233.092,301.763c-38.81,195.656,40.561,376.252,177.28,403.372
				c107.042,34.757,274.805,54.432,407.223,43.175l0.023-0.112c121.727-6.568,238.438-133.911,273.013-308.216
				C1460.55,2337.997,1403.164,2177.542,1295.744,2123.01z"/>
		</g>
		<g>
			<g>
				<path style="fill:#4A507F;" d="M2361.896,2166.569l0.007-0.036c-106.047-59.197-386.136-86.634-493.791-52.869l-0.006,0.082
					c-106.507,28.738-202.324,146.651-233.092,301.763c-38.81,195.656,40.561,376.252,177.28,403.372
					c107.042,34.757,274.805,54.432,407.223,43.175l0.023-0.112c121.727-6.568,238.438-133.911,273.012-308.216
					C2526.703,2381.555,2469.317,2221.101,2361.896,2166.569z"/>
			</g>
			<g>

					<ellipse transform="matrix(0.1946 -0.9809 0.9809 0.1946 -663.9106 4201.2925)" style="fill:#575E87;" cx="2226.303" cy="2504.916" rx="358.938" ry="270.656"/>
			</g>
			<g>
				<path style="fill:#B0B4D6;" d="M2408.862,2541.106c-30.226,152.592-138.027,259.714-240.713,239.355
					c-102.685-20.36-161.414-160.527-131.188-313.119c2.453-12.425,5.429-24.535,8.927-36.281
					c38.839-132.86,137.506-221.711,231.837-203.022c59.67,11.85,104.512,64.107,125.655,135.782
					C2418.625,2415.504,2421.547,2477.208,2408.862,2541.106z"/>
			</g>
			<g>
				<path style="fill:#EAEDF9;" d="M2157.229,2686.672c0,0-26.404-72.223,11.649-97.073c38.053-24.851,88.531,12.426,88.531,12.426
					l114.352,45.991c0,0-56.297,82.695-79.495,98.11c-23.198,15.415-63.828,25.195-69.34,26.749c-5.511,1.553-27.644,0-27.644,0
					L2157.229,2686.672z"/>
			</g>
			<g>
				<path style="fill:#848CBC;" d="M2403.38,2363.822c-62.593,13.469-101.954,62.019-101.954,62.019
					c-163.555-183.707-249.534,7.151-249.534,7.151l-6.004-1.931c38.839-132.86,137.506-221.711,231.837-203.022
					C2337.395,2239.89,2382.237,2292.146,2403.38,2363.822z"/>
			</g>
			<g>
				<path style="fill:#040A56;" d="M2140.415,2883.485c-113.872,0-241.338-17.39-332.759-46.899
					c-71.66-14.624-130.781-67.439-166.558-148.838c-34.976-79.583-43.501-177.527-24.004-275.794
					c31.108-156.853,129.273-283.318,244.575-315.391c0.322-0.119,0.645-0.232,0.972-0.334
					c115.537-36.243,400.483-5.757,508.169,54.35c0.137,0.076,0.269,0.154,0.405,0.232
					c115.674,59.565,174.219,230.237,139.253,406.47c-35.513,179.033-156.362,314.358-287.881,322.785
					c-0.503,0.086-1.011,0.152-1.523,0.196C2195.493,2882.435,2168.36,2883.482,2140.415,2883.485z M2219.517,2862.056h0.049
					H2219.517z M1875.069,2130.635c-0.708,0.295-1.445,0.547-2.202,0.752c-102.925,27.769-191.309,143.379-219.932,287.676
					c-18.047,90.991-10.371,181.189,21.621,253.982c31.011,70.564,81.191,115.991,141.289,127.913
					c0.708,0.139,1.401,0.322,2.09,0.544c109.155,35.444,272.573,52.866,398.105,42.51c0.82-0.161,1.66-0.266,2.51-0.313
					c115.884-6.252,223.579-129.7,256.079-293.528c31.943-161.025-18.945-315.5-121.006-367.312
					c-0.542-0.273-1.064-0.572-1.567-0.894C2252.281,2127.027,1982.393,2098.038,1875.069,2130.635z"/>
			</g>
			<g>
				<path style="fill:#040A56;" d="M2197.945,2799.32c-10.059,0-20.132-0.969-30.151-2.957
					c-56.748-11.257-103.555-52.842-131.792-117.097c-27.402-62.349-34.087-139.058-18.823-215.999
					c15.259-76.941,50.718-145.293,99.844-192.461c50.625-48.608,109.736-69.19,166.509-57.925
					c36.772,7.292,70.2,27.9,96.675,59.597c5.542,6.638,4.658,16.513-1.982,22.058c-6.636,5.552-16.509,4.661-22.061-1.98
					c-21.831-26.14-49.053-43.066-78.726-48.953c-46.421-9.206-95.693,8.477-138.726,49.798
					c-44.536,42.764-76.787,105.254-90.81,175.959c-14.023,70.705-8.066,140.774,16.772,197.302
					c24.004,54.617,62.793,89.768,109.214,98.977c85.366,16.912,176.582-57.905,216.865-177.964
					c2.754-8.201,11.636-12.62,19.829-9.866c8.203,2.754,12.617,11.631,9.868,19.831
					C2379.58,2719.422,2289.302,2799.32,2197.945,2799.32z"/>
			</g>
			<g>
				<path style="fill:#040A56;" d="M2141.289,2705.528c-6.675,0-13.35-0.642-20.005-1.961
					c-39.634-7.861-72.085-37.859-91.367-84.468c-18.648-45.066-22.808-100.676-11.719-156.587
					c23.218-117.034,107.241-199.302,187.29-183.459c80.054,15.881,126.294,124.019,103.086,241.057l0,0
					C2287.285,2627.417,2214.883,2705.528,2141.289,2705.528z M2185.039,2299.339c-62.949,0-125.791,70.786-144.975,167.51
					c-10.244,51.641-6.533,102.685,10.449,143.728c16.343,39.502,43.018,64.76,75.107,71.125
					c68.027,13.491,140.264-60.948,161.089-165.928c20.82-104.983-17.559-201.367-85.557-214.856
					C2195.801,2299.857,2190.415,2299.339,2185.039,2299.339z M2297.642,2517.942h0.049H2297.642z"/>
			</g>
			<g>
				<path style="fill:#040A56;" d="M2141.289,2705.528c-6.675,0-13.35-0.642-20.005-1.961
					c-39.634-7.861-72.085-37.859-91.367-84.468c-18.648-45.066-22.808-100.676-11.719-156.587
					c23.218-117.034,107.241-199.302,187.29-183.459c80.054,15.881,126.294,124.019,103.086,241.057l0,0
					C2287.285,2627.417,2214.883,2705.528,2141.289,2705.528z M2185.039,2299.339c-62.949,0-125.791,70.786-144.975,167.51
					c-10.244,51.641-6.533,102.685,10.449,143.728c16.343,39.502,43.018,64.76,75.107,71.125
					c68.027,13.491,140.264-60.948,161.089-165.928c20.82-104.983-17.559-201.367-85.557-214.856
					C2195.801,2299.857,2190.415,2299.339,2185.039,2299.339z M2297.642,2517.942h0.049H2297.642z"/>
			</g>
			<g>
				<path style="fill:#040A56;" d="M2126.387,2584.493c-3.491,0-6.973-0.339-10.439-1.026
					c-19.878-3.943-36.04-18.721-45.513-41.611c-8.833-21.348-10.825-47.581-5.61-73.867c5.215-26.287,17.07-49.773,33.384-66.133
					c17.49-17.542,38.096-25.027,57.949-21.091c19.878,3.945,36.04,18.723,45.513,41.614c8.833,21.348,10.825,47.583,5.61,73.867
					l0,0c-5.215,26.287-17.07,49.773-33.384,66.133C2159.453,2576.863,2142.906,2584.493,2126.387,2584.493z M2145.855,2402.046
					c-10.61,0-21.724,5.376-31.865,15.547c-13.237,13.279-22.935,32.715-27.3,54.731c-4.37,22.017-2.827,43.684,4.341,61.011
					c6.533,15.781,16.919,25.823,29.253,28.267c12.31,2.444,25.767-2.866,37.832-14.961c13.237-13.279,22.935-32.715,27.3-54.731
					l0,0c4.37-22.017,2.827-43.684-4.341-61.011c-6.533-15.784-16.919-25.823-29.253-28.269
					C2149.859,2402.24,2147.866,2402.046,2145.855,2402.046z"/>
			</g>
		</g>
		<g>
			<g>
				<path style="fill:#4A507F;" d="M3442.366,2037.339l0.006-0.04c-102.848-65.872-374.489-96.403-478.897-58.831l-0.006,0.091
					c-103.294,31.978-196.222,163.187-226.062,335.789c-37.64,217.718,39.337,418.677,171.933,448.855
					c103.813,38.676,266.517,60.569,394.94,48.044l0.022-0.125c118.056-7.308,231.246-149.011,264.778-342.969
					C3602.202,2276.567,3546.547,2098.021,3442.366,2037.339z"/>
			</g>
			<g>

					<ellipse transform="matrix(0.1297 -0.9916 0.9916 0.1297 488.0833 5383.7441)" style="fill:#575E87;" cx="3310.863" cy="2413.838" rx="398.021" ry="263.41"/>
			</g>
			<g>
				<path style="fill:#B0B4D6;" d="M3487.915,2454.108c-29.315,169.798-133.864,288.999-233.452,266.344
					c-99.587-22.656-156.545-178.627-127.231-348.425c2.379-13.826,5.266-27.302,8.657-40.372
					c37.668-147.841,133.358-246.711,224.844-225.914c57.87,13.187,101.36,71.335,121.865,151.093
					C3497.383,2314.344,3500.218,2383.006,3487.915,2454.108z"/>
			</g>
			<g>
				<path style="fill:#EAEDF9;" d="M3243.873,2616.088c0,0-25.608-80.366,11.297-108.019
					c36.905-27.653,85.861,13.826,85.861,13.826l110.903,51.177c0,0-54.599,92.02-77.098,109.172s-61.903,28.036-67.248,29.765
					c-5.345,1.728-26.81,0-26.81,0L3243.873,2616.088z"/>
			</g>
			<g>
				<path style="fill:#848CBC;" d="M3482.599,2256.834c-60.705,14.988-98.879,69.012-98.879,69.012
					c-158.622-204.421-242.008,7.958-242.008,7.958l-5.823-2.148c37.668-147.841,133.358-246.711,224.844-225.914
					C3418.604,2118.928,3462.094,2177.076,3482.599,2256.834z"/>
			</g>
			<g>
				<path style="fill:#040A56;" d="M3227.613,2833.738c-110.767,0-234.761-19.399-323.74-52.317
					c-69.937-16.455-127.456-75.183-162.061-165.527c-33.682-87.925-41.885-196.162-23.105-304.78
					c30.068-173.931,125.337-314.309,237.407-350.137c0.308-0.132,0.62-0.254,0.938-0.366
					c112.725-40.571,390.601-6.521,495.562,60.706c0.122,0.078,0.239,0.159,0.361,0.239
					c111.821,66.101,168.501,254.968,134.814,449.829c-34.355,198.701-151.914,348.96-280.083,358.53
					c-0.522,0.097-1.05,0.173-1.587,0.225C3281.231,2832.566,3254.815,2833.738,3227.613,2833.738z M3304.278,2811.248h0.049
					H3304.278z M2971.411,1995.797c-0.747,0.347-1.528,0.647-2.329,0.896c-99.531,30.813-185.117,159.768-212.974,320.889
					c-35.889,207.585,34.741,399.189,157.446,427.114c0.82,0.188,1.626,0.427,2.412,0.723
					c105.4,39.268,263.115,58.591,384.424,47.134c0.894-0.188,1.807-0.315,2.739-0.374
					c109.873-6.802,216.167-147.493,247.251-327.261c31.187-180.407-18.257-353.332-117.568-411.177
					c-0.552-0.322-1.089-0.671-1.597-1.042C3334.976,1991.915,3074.917,1959.783,2971.411,1995.797z"/>
			</g>
			<g>
				<path style="fill:#040A56;" d="M3283.301,2740.277c-9.951,0-19.917-1.099-29.834-3.357
					c-55.498-12.629-101.118-58.892-128.457-130.264c-26.367-68.836-32.798-153.552-18.101-238.545
					c19.351-111.946,72.28-206.357,141.587-252.551c38.359-25.566,79.331-34.37,118.525-25.457
					c36.108,8.22,68.818,31.279,94.6,66.684c5.288,7.263,3.687,17.439-3.579,22.727c-7.271,5.291-17.437,3.687-22.729-3.577
					c-21.079-28.948-47.188-47.659-75.513-54.106c-30.244-6.89-62.505,0.305-93.257,20.803
					c-61.094,40.72-109.976,129.24-127.573,231.018c-27.866,161.196,26.733,309.922,121.714,331.538
					c81.724,18.604,169.409-64.783,208.452-198.284c2.52-8.618,11.563-13.572,20.181-11.047
					c8.628,2.522,13.574,11.557,11.05,20.183C3460.752,2651.49,3372.7,2740.277,3283.301,2740.277z"/>
			</g>
			<g>
				<path style="fill:#040A56;" d="M3228.643,2636.27c-6.753,0-13.467-0.75-20.098-2.258
					c-79.019-17.981-123.081-135.227-100.313-266.919c14.409-83.384,52.827-153.035,102.754-186.319
					c26.074-17.375,53.794-23.386,80.156-17.39c79.014,17.986,123.076,135.229,100.313,266.921l0,0
					c-14.414,83.389-52.832,153.039-102.764,186.321C3269.18,2629.629,3248.745,2636.27,3228.643,2636.27z M3271.157,2184.302
					c-15.586,0-31.699,5.322-47.324,15.74c-44.082,29.383-79.634,94.903-92.788,170.996
					c-20.322,117.561,16.748,225.401,82.637,240.396c20.029,4.556,41.514-0.31,62.168-14.075
					c44.077-29.38,79.634-94.902,92.793-170.998c20.317-117.559-16.753-225.403-82.637-240.398
					C3281.133,2184.854,3276.172,2184.302,3271.157,2184.302z M3380.049,2428.333h0.049H3380.049z"/>
			</g>
			<g>
				<path style="fill:#040A56;" d="M3228.643,2636.27c-6.753,0-13.467-0.75-20.098-2.258
					c-79.019-17.981-123.081-135.227-100.313-266.919c14.409-83.384,52.827-153.035,102.754-186.319
					c26.074-17.375,53.794-23.386,80.156-17.39c79.014,17.986,123.076,135.229,100.313,266.921l0,0
					c-14.414,83.389-52.832,153.039-102.764,186.321C3269.18,2629.629,3248.745,2636.27,3228.643,2636.27z M3271.157,2184.302
					c-15.586,0-31.699,5.322-47.324,15.74c-44.082,29.383-79.634,94.903-92.788,170.996
					c-20.322,117.561,16.748,225.401,82.637,240.396c20.029,4.556,41.514-0.31,62.168-14.075
					c44.077-29.38,79.634-94.902,92.793-170.998c20.317-117.559-16.753-225.403-82.637-240.398
					C3281.133,2184.854,3276.172,2184.302,3271.157,2184.302z M3380.049,2428.333h0.049H3380.049z"/>
			</g>
			<g>
				<path style="fill:#040A56;" d="M3213.853,2501.551c-3.516,0-7.017-0.39-10.479-1.179
					c-38.804-8.83-60.732-64.697-49.922-127.185c6.763-39.141,25.044-72.002,48.896-87.9c13.198-8.801,27.363-11.816,40.947-8.721
					c38.799,8.828,60.732,64.695,49.922,127.185c-6.763,39.141-25.044,72.002-48.896,87.9
					C3234.488,2498.206,3224.116,2501.551,3213.853,2501.551z M3232.813,2298.543c-5.718,0-11.621,2.009-17.622,6.01
					c-18.389,12.258-33.306,40.069-38.926,72.578c-8.413,48.672,6.353,94.768,32.246,100.662c7.349,1.67,15.078-0.149,22.969-5.41
					c18.389-12.258,33.306-40.068,38.926-72.578l0,0c8.413-48.672-6.353-94.771-32.246-100.662
					C3236.397,2298.743,3234.615,2298.543,3232.813,2298.543z"/>
			</g>
		</g>
		<g>
			<path style="fill:#4D9DF4;" d="M1441.311,1798.718c0,0,10.306-84.581-18.222-94.767
				c-28.529-10.186-190.395-43.623-202.184-27.312c-11.789,16.311-21.649,110.546,15.614,126.323
				c37.263,15.777,166.88,35.15,166.88,35.15l15.343,26.32c4.974,9.57,16.821,13.212,26.312,8.089h0
				c8.314-4.488,12.161-14.331,9.093-23.267L1441.311,1798.718z"/>
		</g>
		<g>
			<path style="fill:#040A56;" d="M1435.928,1890.518c-3.452,0-6.924-0.518-10.327-1.563c-8.887-2.734-16.172-8.733-20.552-16.917
				l-11.416-19.58c-28.579-4.443-129.468-20.784-163.223-35.076c-14.649-6.204-24.995-19.8-30.747-40.413
				c-10.132-36.289-3.774-92.454,8.545-109.504c7.119-9.844,20.879-17.444,110.088-2.556c47.197,7.876,95.01,18.918,110.059,24.292
				c35.928,12.827,31.694,82.769,28.843,108.457l11.992,47.205c5.146,16.06-1.792,33.391-16.694,41.438
				C1447.31,1889.097,1441.646,1890.518,1435.928,1890.518z M1232.359,1688.299c-5.098,12.634-10.376,54.47-2.07,81.821
				c2.099,6.909,5.938,15.71,12.339,18.42c29.067,12.307,127.578,28.774,163.086,34.082c4.697,0.701,8.823,3.499,11.216,7.603
				l15.342,26.321c0.127,0.217,0.249,0.437,0.366,0.659c0.581,1.123,1.499,1.604,2.168,1.809c0.669,0.21,1.699,0.322,2.813-0.276
				c1.577-0.852,2.3-2.703,1.714-4.402c-0.137-0.403-0.259-0.813-0.366-1.228l-12.837-50.535c-0.474-1.873-0.601-3.823-0.366-5.742
				c4.702-38.875-0.439-75.452-7.939-78.132C1387.744,1707.96,1258.594,1683.404,1232.359,1688.299z M1230,1688.919
				C1230,1688.922,1230,1688.919,1230,1688.919L1230,1688.919z"/>
		</g>
		<g>
			<path style="fill:#4D9DF4;" d="M3601.564,2272.048c0-173.057-182.87-306.438-305.55-271.043
				c-11.119,3.237-22.344,7.465-33.567,12.737c0,0-0.209,0.104-0.575,0.261c-129.465,61.287-262.689,259.401-352.845,591.992
				c-13.678,50.377-53.3,89.896-103.991,102.529c-134.268,33.41-361.251,16.184-361.251,16.184
				c7.569-19.16,14.199-38.214,19.89-57.06c136.565-449.684-236.379-794.177-524.492-340.16
				c-14.304,22.448-28.347,46.931-42.129,73.399c-104.042,208.136-156.873,288.896-156.873,288.896
				c-565.316,177.076-1174.953-40.406-1174.953-40.406s-129.674-95.481-146.431-152.956
				c-16.758-57.478-10.963-177.076-10.963-177.076l53.613-44.79L568.1,2008c107.645-135,246.925-183.55,400.926-180.103
				c84.309,1.774,172.952,19.211,263.265,46.461c0,0,15.609-14.982,42.128-39.101c65.777-59.878,198.479-176.24,325.492-260.915
				c65.568-43.695,129.622-78.984,182.243-93.706c195.66-54.762,899.264-8.144,1019.229,30.278
				c24.588,7.883,53.04,21.821,82.744,39.049c115.267,66.664,249.274,182.296,249.274,182.296
				c99.813-1.984,181.095,6.63,246.977,23.126c0,0,0.051,0,0.051,0.052C3726.54,1842.096,3647.66,2146.393,3601.564,2272.048z"/>
		</g>
		<g style="opacity:0.56;">
			<path style="fill:#3B7BE2;" d="M531.036,2286.577c-12.049,36.321,627.282,115.496,634.477,89.313
				c0.707-2.572,174.818-219.886,174.818-219.886l-634.542-104.58L531.036,2286.577z"/>
		</g>
		<g style="opacity:0.56;">
			<path style="fill:#FFFFFF;" d="M3206.934,1744.978c0,0-189.957,11.756-178.783,69.223c5.344,27.481,106.188,3.097,207.072,2.589
				c110.082-0.555,220.211,20.509,206.364-2.589C3415.048,1769.935,3286.619,1734.744,3206.934,1744.978z"/>
		</g>
		<g style="opacity:0.56;">
			<path style="fill:#FFFFFF;" d="M609.492,2007.294c0,0,174.344-154.677,257.827-139.145
				c83.483,15.532-182.99,160.334-185.604,165.801C679.1,2039.418,609.492,2007.294,609.492,2007.294z"/>
		</g>
		<g>
			<path style="fill:#3B7BE2;" d="M2950.125,1596.344c0,0,59.538,129.949-24.851,230.905c0,0,91.734-39.07,136.284-63.102
				c44.55-24.032,70.437-33.615,47.464-52.351C3086.048,1693.06,2950.125,1596.344,2950.125,1596.344z"/>
		</g>
		<g style="opacity:0.56;">
			<path style="fill:#FFFFFF;" d="M2884.126,1549.964c-77.785-13.939-277.621-44.322-577.01-51.474
				c-392.208-9.292-539.214,43.382-539.214,43.382l-167.731,33.202c-0.104-0.261-0.156-0.522-0.261-0.731
				c65.568-43.695,129.622-78.984,182.243-93.706c195.66-54.762,899.264-8.144,1019.229,30.278
				C2825.97,1518.797,2854.423,1532.736,2884.126,1549.964z"/>
		</g>
		<g>
			<path style="fill:#3B7BE2;" d="M1271.13,1888.349c-132.285-0.417-403.014,126.49-414.343,131.815
				c6.996-4.072,119.234-69.849,132.442-124.036c9.292-38.109-8.144-58.886-20.203-68.23
				c84.309,1.774,172.952,19.211,263.265,46.461c0,0,15.609-14.982,42.128-39.101
				C1317.591,1862.612,1338.316,1888.505,1271.13,1888.349z"/>
		</g>
		<g>
			<path style="fill:#3B7BE2;" d="M618.954,2421.664c0,0-32.269-11.457-32.269,38.244s25.085,131.758,36.948,135.126
				s85.65-21.356,82.155-28.733c-3.495-7.377-5.436-92.414-11.649-107.946c-6.213-15.532-22.786-28.934-22.786-28.934"/>
		</g>
		<g>
			<path style="fill:#3B7BE2;" d="M1944.038,2282.54l-4.855,44.948c-14.304,22.448-28.347,46.931-42.129,73.399
				c-104.042,208.136-156.873,288.896-156.873,288.896c-565.316,177.076-1174.953-40.406-1174.953-40.406
				s-129.674-95.481-146.431-152.956c138.184,133.955,622.479,202.655,955.331,176.292
				C1707.033,2646.298,1939.392,2291.416,1944.038,2282.54z"/>
		</g>
		<g>
			<path style="fill:#3B7BE2;" d="M3261.873,2014.003c-129.465,61.287-262.689,259.401-352.845,591.992
				c-13.678,50.377-53.3,89.896-103.991,102.529c-134.268,33.41-361.251,16.184-361.251,16.184
				c7.569-19.16,14.199-38.214,19.89-57.06c83.788,3.133,337.759,7.726,355.456-48.81c21.247-67.813-19.836-104.773-61.652-90.679
				c-41.868,14.095-182.818,14.199-182.818,14.199l19.263-81.908c0,0,128.943-17.644,185.167-94.228
				c56.224-76.635,105.504-330.502,96.473-404.058c-8.979-73.556,56.276-46.409,56.276-46.409
				c43.852,1.827,144.604,21.769,173.578,89.582C3133.295,2070.436,3252.424,2018.284,3261.873,2014.003z"/>
		</g>
		<g>
			<path style="fill:#3B7BE2;" d="M3601.564,2272.048c0-173.057-182.87-306.438-305.55-271.043
				c70.684-53.666,241.966,70.632,282.633-18.689c40.04-88.016-191.537-223.016-198.219-226.879
				C3726.54,1842.096,3647.66,2146.393,3601.564,2272.048z"/>
		</g>
		<g>
			<path style="fill:#262568;" d="M2327.319,1585.462v351.802c0,0-74.964,19.629-218.525,24.014
				c-30.905,0.992-65.046,1.201-102.216,0.417c-28.19-0.678-58.207-1.879-89.947-3.915c-42.493-2.61-88.12-6.63-136.826-12.372
				c-18.376-2.141-36.281-4.281-53.823-6.369c-311.918-37.378-493.692-64.681-493.692-64.681
				c122.418-114.901,244.993-217.69,367.881-299.285c26.781-17.802,53.613-34.611,80.446-50.272c0,0,31.479,7.412,87.285,17.071
				c27.355,4.698,60.557,9.97,98.822,15.191c31.166,4.229,65.621,8.405,102.999,12.216
				C2070.842,1579.563,2192.998,1587.132,2327.319,1585.462z"/>
		</g>
		<defs>
			<filter id="Adobe_OpacityMaskFilter" filterUnits="userSpaceOnUse" x="1600.171" y="1524.801" width="316.46" height="432.979">
				<feFlood  style="flood-color:white;flood-opacity:1" result="back"/>
				<feBlend  in="SourceGraphic" in2="back" mode="normal"/>
			</filter>
		</defs>
		<mask maskUnits="userSpaceOnUse" x="1600.171" y="1524.801" width="316.46" height="432.979" id="SVGID_1_">
			<g style="filter:url(#Adobe_OpacityMaskFilter);">
				<defs>

						<filter id="Adobe_OpacityMaskFilter_00000126294755500197569610000003519825515047796916_" filterUnits="userSpaceOnUse" x="1600.171" y="1524.801" width="316.46" height="432.979">
						<feFlood  style="flood-color:white;flood-opacity:1" result="back"/>
						<feBlend  in="SourceGraphic" in2="back" mode="normal"/>
					</filter>
				</defs>
				<mask maskUnits="userSpaceOnUse" x="1600.171" y="1524.801" width="316.46" height="432.979" id="SVGID_1_">
					<g style="filter:url(#Adobe_OpacityMaskFilter_00000126294755500197569610000003519825515047796916_);">
					</g>
				</mask>

					<linearGradient id="SVGID_00000059310831615866063940000005430077020701778599_" gradientUnits="userSpaceOnUse" x1="1661.7444" y1="1328.5126" x2="1789.1589" y2="1905.7787">
					<stop  offset="0" style="stop-color:#FFFFFF"/>
					<stop  offset="1" style="stop-color:#000000"/>
				</linearGradient>
				<path style="mask:url(#SVGID_1_);fill:url(#SVGID_00000059310831615866063940000005430077020701778599_);" d="
					M1916.631,1957.78c-42.493-2.61-88.12-6.63-136.826-12.372c-18.376-2.141-36.281-4.281-53.823-6.369l-125.811-363.965
					c26.781-17.802,53.613-34.611,80.446-50.272c0,0,31.479,7.412,87.285,17.071
					C1818.906,1687.52,1901.596,1922.856,1916.631,1957.78z"/>
			</g>
		</mask>

			<linearGradient id="SVGID_00000065784718852631347980000016101805617778402703_" gradientUnits="userSpaceOnUse" x1="1661.7444" y1="1328.5126" x2="1789.1589" y2="1905.7787">
			<stop  offset="0" style="stop-color:#FFFFFF"/>
			<stop  offset="1" style="stop-color:#FFFFFF"/>
		</linearGradient>
		<path style="opacity:0.35;fill:url(#SVGID_00000065784718852631347980000016101805617778402703_);" d="M1916.631,1957.78
			c-42.493-2.61-88.12-6.63-136.826-12.372c-18.376-2.141-36.281-4.281-53.823-6.369l-125.811-363.965
			c26.781-17.802,53.613-34.611,80.446-50.272c0,0,31.479,7.412,87.285,17.071
			C1818.906,1687.52,1901.596,1922.856,1916.631,1957.78z"/>
		<defs>

				<filter id="Adobe_OpacityMaskFilter_00000141425790134258261040000008523853550125565103_" filterUnits="userSpaceOnUse" x="1866.724" y="1557.063" width="242.07" height="405.11">
				<feFlood  style="flood-color:white;flood-opacity:1" result="back"/>
				<feBlend  in="SourceGraphic" in2="back" mode="normal"/>
			</filter>
		</defs>

			<mask maskUnits="userSpaceOnUse" x="1866.724" y="1557.063" width="242.07" height="405.11" id="SVGID_00000013187845917011533750000017336996203496743556_">
			<g style="filter:url(#Adobe_OpacityMaskFilter_00000141425790134258261040000008523853550125565103_);">
				<defs>

						<filter id="Adobe_OpacityMaskFilter_00000171685805827413909320000005381483712677677455_" filterUnits="userSpaceOnUse" x="1866.724" y="1557.063" width="242.07" height="405.11">
						<feFlood  style="flood-color:white;flood-opacity:1" result="back"/>
						<feBlend  in="SourceGraphic" in2="back" mode="normal"/>
					</filter>
				</defs>

					<mask maskUnits="userSpaceOnUse" x="1866.724" y="1557.063" width="242.07" height="405.11" id="SVGID_00000013187845917011533750000017336996203496743556_">
					<g style="filter:url(#Adobe_OpacityMaskFilter_00000171685805827413909320000005381483712677677455_);">
					</g>
				</mask>

					<linearGradient id="SVGID_00000173858082894710284750000002006044082979931803_" gradientUnits="userSpaceOnUse" x1="1879.8691" y1="1343.5299" x2="2030.7269" y2="1924.7028">
					<stop  offset="0" style="stop-color:#FFFFFF"/>
					<stop  offset="1" style="stop-color:#000000"/>
				</linearGradient>

					<path style="mask:url(#SVGID_00000013187845917011533750000017336996203496743556_);fill:url(#SVGID_00000173858082894710284750000002006044082979931803_);" d="
					M2108.794,1961.278c-30.905,0.992-65.046,1.201-102.216,0.417l-139.854-404.632c31.166,4.229,65.621,8.405,102.999,12.216
					C2011.537,1688.877,2078.359,1879.161,2108.794,1961.278z"/>
			</g>
		</mask>

			<linearGradient id="SVGID_00000119119765261484799970000016537567432389457851_" gradientUnits="userSpaceOnUse" x1="1879.8691" y1="1343.5299" x2="2030.7269" y2="1924.7028">
			<stop  offset="0" style="stop-color:#FFFFFF"/>
			<stop  offset="1" style="stop-color:#FFFFFF"/>
		</linearGradient>
		<path style="opacity:0.35;fill:url(#SVGID_00000119119765261484799970000016537567432389457851_);" d="M2108.794,1961.278
			c-30.905,0.992-65.046,1.201-102.216,0.417l-139.854-404.632c31.166,4.229,65.621,8.405,102.999,12.216
			C2011.537,1688.877,2078.359,1879.161,2108.794,1961.278z"/>
		<g>
			<path style="fill:#262568;" d="M2868.986,1868.563c-23.856,15.401-55.075,27.407-89.895,36.752
				c-29.965,7.987-62.593,13.991-95.429,18.427c-103.729,13.991-210.016,12.268-243.479,8.196l-36.752-348.043l161.259-4.281
				l98.09-2.61l43.016-1.148c28.712-0.731,54.866,16.548,65.359,43.329L2868.986,1868.563z"/>
		</g>
		<defs>

				<filter id="Adobe_OpacityMaskFilter_00000131330351347125271880000016619861536762818972_" filterUnits="userSpaceOnUse" x="2564.691" y="1577.005" width="214.4" height="346.738">
				<feFlood  style="flood-color:white;flood-opacity:1" result="back"/>
				<feBlend  in="SourceGraphic" in2="back" mode="normal"/>
			</filter>
		</defs>

			<mask maskUnits="userSpaceOnUse" x="2564.691" y="1577.005" width="214.4" height="346.738" id="SVGID_00000096028520178657798350000018361318204708987041_">
			<g style="filter:url(#Adobe_OpacityMaskFilter_00000131330351347125271880000016619861536762818972_);">
				<defs>

						<filter id="Adobe_OpacityMaskFilter_00000083782459135648528630000008380309408069769372_" filterUnits="userSpaceOnUse" x="2564.691" y="1577.005" width="214.4" height="346.738">
						<feFlood  style="flood-color:white;flood-opacity:1" result="back"/>
						<feBlend  in="SourceGraphic" in2="back" mode="normal"/>
					</filter>
				</defs>

					<mask maskUnits="userSpaceOnUse" x="2564.691" y="1577.005" width="214.4" height="346.738" id="SVGID_00000096028520178657798350000018361318204708987041_">
					<g style="filter:url(#Adobe_OpacityMaskFilter_00000083782459135648528630000008380309408069769372_);">
					</g>
				</mask>

					<linearGradient id="SVGID_00000088852112395293033900000018276424089594323585_" gradientUnits="userSpaceOnUse" x1="2583.7964" y1="1403.084" x2="2706.9778" y2="1877.6349">
					<stop  offset="0" style="stop-color:#FFFFFF"/>
					<stop  offset="1" style="stop-color:#000000"/>
				</linearGradient>

					<path style="mask:url(#SVGID_00000096028520178657798350000018361318204708987041_);fill:url(#SVGID_00000088852112395293033900000018276424089594323585_);" d="
					M2779.091,1905.315c-29.965,7.987-62.593,13.991-95.429,18.427l-118.972-344.128l98.09-2.61
					C2699.846,1682.927,2749.283,1823.459,2779.091,1905.315z"/>
			</g>
		</mask>

			<linearGradient id="SVGID_00000181798177844638500530000013408965232019337130_" gradientUnits="userSpaceOnUse" x1="2583.7964" y1="1403.084" x2="2706.9778" y2="1877.6349">
			<stop  offset="0" style="stop-color:#FFFFFF"/>
			<stop  offset="1" style="stop-color:#FFFFFF"/>
		</linearGradient>
		<path style="opacity:0.35;fill:url(#SVGID_00000181798177844638500530000013408965232019337130_);" d="M2779.091,1905.315
			c-29.965,7.987-62.593,13.991-95.429,18.427l-118.972-344.128l98.09-2.61C2699.846,1682.927,2749.283,1823.459,2779.091,1905.315
			z"/>
		<g>
			<path style="fill:#040A56;" d="M491.132,2375.889c-0.07,7.525-18.319,106.667,19.733,152.034
				c38.053,45.367,48.148,43.296,48.148,43.296l-16.308-175.767L491.132,2375.889z"/>
		</g>
		<g>
			<polygon style="fill:#040A56;" points="1171.741,2482.117 1186.791,2677.706 1374.148,2672.694 1433.709,2495.632 				"/>
		</g>
		<g>
			<path style="fill:#040A56;" d="M1253.072,2777.212c-117.915,0-225.967-10.283-314.981-23.144
				c-222.31-32.117-377.461-86.914-379.004-87.464c-1.68-0.598-3.262-1.44-4.697-2.497
				c-13.784-10.151-135.181-100.965-153.149-162.586c-17.412-59.722-11.895-178.054-11.655-183.061
				c0.249-5.098,2.617-9.861,6.533-13.135l50.049-41.829l104.956-262.266c0.664-1.655,1.563-3.206,2.676-4.6
				c148.091-185.786,368.511-232.544,673.608-142.8c54.341-51.223,365.786-339.314,549.81-390.793
				c195.825-54.783,905.928-9.194,1029.766,30.481c112.827,36.15,298.496,191.006,333.022,220.337
				c231.25-3.542,388.105,49.985,465.942,159.111c88.14,123.564,55.591,288.643,12.764,405.369
				c-3.052,8.313-11.621,13.237-20.352,11.697c-8.721-1.55-15.073-9.133-15.073-17.991c0-78.069-41.494-155.888-110.991-208.169
				c-56.133-42.224-121.724-59.573-171.191-45.313c-145.327,41.939-285.303,263.32-374.438,592.197
				c-15.474,57.083-60.396,101.333-117.236,115.481c-135.552,33.745-357.637,17.415-367.021,16.704
				c-5.786-0.437-11.021-3.598-14.102-8.515c-3.081-4.919-3.643-11.008-1.514-16.406
				c106.45-269.909,22.041-505.488-117.212-568.962c-58.691-26.755-123.682-21.611-187.944,14.871
				c-74.907,42.527-146.958,127.383-208.35,245.393c-103.218,206.428-155.615,287.122-157.793,290.457
				c-2.319,3.542-5.791,6.172-9.834,7.437C1578.321,2759.625,1407.266,2777.21,1253.072,2777.212z M573.858,2633.052
				c20.64,7.075,166.704,55.632,370.322,84.973c199.946,28.814,497.671,44.424,784.18-43.703
				c13.296-21.321,64.824-106.516,152.373-281.604c65.713-126.316,140.649-213.897,222.866-260.566
				c74.883-42.507,151.343-48.154,221.143-16.345c150.254,68.491,245.132,312.097,144.863,592.183
				c61.772,3.252,226.631,8.772,330.996-17.21c43.994-10.952,78.784-45.278,90.791-89.582
				c47.666-175.86,108.32-319.995,180.288-428.408c67.71-102.007,143.54-167.478,219.292-189.339
				c61.172-17.656,137.183,1.492,203.291,51.218c54.912,41.309,94.375,97.056,113.179,157.41
				c24.902-97.241,31.011-210.618-31.245-297.891c-71.187-99.795-220.059-148.132-442.432-143.672
				c-4.463,0.105-8.882-1.489-12.3-4.434c-2.095-1.804-210.581-180.901-325.635-217.764
				c-121.401-38.894-817.095-83.718-1008.77-30.09c-189.106,52.905-538.604,385.974-542.109,389.331
				c-4.771,4.561-11.611,6.194-17.925,4.292c-293.262-88.633-503.618-47.593-642.983,125.476l-105.659,264.023
				c-1.123,2.81-2.925,5.293-5.244,7.232l-47.358,39.58c-0.908,27.205-2.764,117.503,10.537,163.13
				C448.384,2532.654,537.603,2606.033,573.858,2633.052z"/>
		</g>
		<g>
			<path style="fill:#040A56;" d="M2052.656,1980.557c-76.514,0-168.311-4.434-274.98-16.99
				c-341.065-40.149-546.045-70.833-548.076-71.138c-9.98-1.501-16.855-10.806-15.352-20.784
				c1.494-9.98,10.854-16.853,20.781-15.354c2.026,0.305,206.499,30.911,546.914,70.981
				c295.405,34.778,477.656,5.305,527.085-4.678v-318.679c-358.11,2.319-629.863-60.664-632.607-61.311
				c-9.824-2.312-15.913-12.148-13.599-21.97c2.305-9.824,12.173-15.918,21.968-13.601c2.759,0.647,279.619,64.722,642.28,60.168
				c4.692-0.186,9.59,1.833,13.066,5.269c3.477,3.433,5.435,8.115,5.435,13v351.794c0,8.308-5.605,15.571-13.643,17.676
				C2326.367,1956.397,2231.206,1980.552,2052.656,1980.557z"/>
		</g>
		<g>
			<path style="fill:#040A56;" d="M2513.076,1953.155c-34.072,0-60.884-1.377-75.103-3.103
				c-8.452-1.023-15.073-7.751-15.967-16.218l-36.768-347.996c-0.537-5.066,1.069-10.127,4.424-13.96
				c3.359-3.833,8.164-6.089,13.257-6.223l302.363-8.047c36.509-0.969,69.604,21.099,82.861,54.902l97.832,249.355
				c3.179,8.091,0.21,17.297-7.09,22.017C2791.939,1940.089,2618.047,1953.155,2513.076,1953.155z M2456.773,1915.096
				c77.285,5.378,289.629-1.021,389.492-54.402l-92.134-234.839c-7.671-19.529-26.88-32.219-47.876-31.719l-282.598,7.522
				L2456.773,1915.096z"/>
		</g>
		<g>
			<path style="fill:#040A56;" d="M3137.544,1750.041c-59.881,12.453-119.223,35.071-168.853,71.414
				c-3.757,2.71-9.001,1.86-11.709-1.898c-2.529-3.505-1.929-8.329,1.211-11.158c12.156-10.876,24.834-21.312,38.369-30.437
				c33.72-23.1,70.588-41.26,108.872-55.498c7.798-2.873,15.271-5.475,23.818-8.013c9.69-2.877,19.878,2.646,22.754,12.337
				C3155.18,1737.202,3148.273,1748.269,3137.544,1750.041L3137.544,1750.041z"/>
		</g>
		<g>
			<g>
				<path style="fill:#D9DDF9;" d="M1353.462,2146.944c0,0,212.785-2.848,227.799,59.279
					c15.014,62.127-84.907,179.133-127.878,198.806c-42.971,19.673-286.302,17.603-287.855-8.284
					C1163.975,2370.86,1278.133,2193.151,1353.462,2146.944z"/>
			</g>
			<g>
				<path style="fill:#D9DDF9;" d="M705.814,2051.434c-14.043,28.608-37.639,72.146-63.48,113.856
					c-22.552,36.334-46.723,71.258-67.761,93.707c-11.067,11.849-21.247,20.255-29.809,23.543c-43.486,16.811-118.555,0-118.555,0
					c-30.383-119.546,39.623-211.739,80.446-253.397c16.026-16.34,38.788-24.379,61.443-21.142
					C642.177,2018.754,705.814,2051.434,705.814,2051.434z"/>
			</g>
			<g>
				<path style="fill:#BBC3EA;" d="M642.334,2165.29c-22.552,36.334-46.723,71.258-67.761,93.707
					c-24.901-8.405-43.538-41.817-43.538-81.752c0-46.356,25.057-83.892,55.91-83.892
					C615.135,2093.353,638.471,2124.623,642.334,2165.29z"/>
			</g>
			<g>
				<path style="fill:#040A56;" d="M1314.864,2433.883c-65.679,0-132.178-5.681-152.749-18.037
					c-9.546-5.73-11.914-13.039-12.222-18.162c-2.188-36.506,120.259-218.01,195.381-264.089c2.402-1.475,5.161-2.273,7.979-2.31
					c37.637-0.508,226.142,0.564,243.232,71.26c17.598,72.825-88.931,194.907-136.582,216.726
					C1439.248,2428.726,1377.427,2433.883,1314.864,2433.883z M1182.525,2391.165c38.306,14.985,229.453,15.598,264.341-0.376
					c40.327-18.465,131.387-130.349,119.17-180.886c-8.091-33.479-127.358-47.839-207.949-47.344
					C1289.297,2207.813,1195.054,2355.254,1182.525,2391.165z"/>
			</g>
			<g>
				<path style="fill:#040A56;" d="M494.444,2305.65c-36.128,0-69.526-7.334-71.646-7.808c-5.762-1.289-10.308-5.705-11.763-11.423
					c-31.978-125.777,39.17-222.044,84.424-268.233c19.609-20.022,47.568-29.622,74.873-25.667
					c75.811,10.974,139.917,43.591,142.612,44.973c7.583,3.896,10.654,13.142,6.914,20.803
					c-1.045,2.136-107.168,214.822-169.438,238.872C533.902,2303.548,513.78,2305.65,494.444,2305.65z M439.18,2269.156
					c24.829,4.399,72.212,9.511,99.951-1.206c31.392-12.124,102.832-125.298,145.469-209.135
					c-22.236-9.819-68.247-27.984-118.755-35.293c-17.407-2.515-35.361,3.674-48.013,16.584
					C478.355,2080.401,416.866,2162.835,439.18,2269.156z"/>
			</g>
			<g>
				<ellipse style="fill:#BBC3EA;" cx="1399.281" cy="2290.613" rx="55.914" ry="83.871"/>
			</g>
			<g>
				<path style="fill:#FFFFFF;" d="M1387.535,2177.178c-13.798-0.684-27.231,4.332-37.118,13.981
					c-29.256,28.554-89.504,91.254-86.263,120.422c4.271,38.441,274.523-67.951,254.72-100.956
					C1504.091,2185.983,1426.11,2179.09,1387.535,2177.178z"/>
			</g>
			<g>
				<path style="fill:#FFFFFF;" d="M622.56,2072.667c3.275-8.227-1.231-17.479-9.623-20.3c-21.549-7.245-61.4-18.051-77.997-5.603
					c-23.298,17.473-69.893,85.425-65.233,111.052C474.1,2181.985,590.732,2152.625,622.56,2072.667z"/>
			</g>
		</g>
		<g>
			<path style="fill:#040A56;" d="M1583.494,1994.036c-107.141,21.254-209.147,72.141-290.247,145.29
				c-3.85,3.355-8.85,4.693-13.55,4.126l-63.013-7.955l-62.949-8.407c-124.94-16.781-252.748-35.078-377.185-54.121
				c-15.138-1.661-19.562-22.591-6.137-30.05c47.757-27.453,96.046-52.946,145.644-76.753
				c49.919-23.429,100.307-45.958,153.977-60.065c10.233-2.396,14.387,12.335,4.607,15.734
				c-50.772,18.099-99.063,42.685-146.55,68.103c-47.652,25.476-94.844,52.797-140.925,80.863c0,0-6.14-30.05-6.14-30.05
				c42.036,5.103,83.999,10.73,125.989,16.169c102.365,13.345,212.137,28.698,314.526,43.616l62.795,9.518l-13.55,4.125
				l16.77-13.723c44.569-36.167,95.665-64.657,149.021-85.581c46.646-17.757,95.443-30.964,145.498-34.976
				C1590.742,1979.325,1592.917,1992.582,1583.494,1994.036L1583.494,1994.036z"/>
		</g>
		<g>
			<path style="fill:#040A56;" d="M596.553,2411.167c108.703,10.397,217.046,23.882,325.259,38.337
				c36.047,4.887,72.114,9.644,108.103,14.918c7.983,1.169,13.953,7.454,15.076,15.043c6.766,45.98,20.289,138.446,26.569,184.492
				c1.704,11.159-7.776,21.357-19.016,20.523c-73.171-4.921-146.173-13.399-218.406-26.222
				c-72.265-12.664-143.787-29.906-213.696-52.157c-2.518-0.662-4.816-2.202-6.133-4.305c-4.917-7.504-8.528-14.377-12.197-21.757
				c-10.724-21.704-18.431-44.857-23.384-68.464c-0.938-4.431,1.897-8.783,6.328-9.719c4.187-0.885,8.301,1.594,9.534,5.608
				c6.418,21.743,15.298,42.818,26.538,62.476c3.66,6.373,7.856,13.025,11.831,18.33l-6.133-4.304
				c105.008,27.034,212.185,44.735,319.993,55.806c35.937,3.658,71.973,6.364,108.037,8.708l-19.011,20.557
				c-6.906-45.931-19.907-138.392-26.255-184.384c0,0,15.086,15.158,15.086,15.158c-107.876-16.568-215.564-34.396-322.937-54.006
				c-35.806-6.529-71.57-13.329-107.266-20.584C585.941,2423.419,587.548,2410.491,596.553,2411.167L596.553,2411.167z"/>
		</g>
		<g>
			<path style="fill:#040A56;" d="M1039.721,2626.615c-112.444-0.915-230.088-17.253-352.275-47.06
				c-12.204-2.344-21.493-12.309-22.976-24.648l-12.796-106.473c-1.273-11.261,8.469-20.672,19.679-19.013l168.344,24.922
				l187.598,27.773L1039.721,2626.615z"/>
		</g>
		<g>
			<path style="fill:#040A56;" d="M1116.626,2554.812c-0.1,0.046-0.161,0.114-0.178,0.179l-0.1-0.966l-0.222-2.18
				c-0.959-8.375-2.787-23.64-3.789-32.126l-4.216-36.863c-0.681-5.95,3.591-11.326,9.541-12.006
				c46.419-0.771,112.545,0.829,159.629,1.51c39.144,0.957,118.076,3.407,157.202,5.037c10.019,0.367,17.847,8.788,17.478,18.808
				c-7.3,34.156-42.754,184.353-73.626,193.098c-79.127,17.343-160.151,6.298-239.015-5.435c-5.238-0.49-9.41-4.643-9.814-9.736
				c-1.902-21.51-3.667-43.037-5.251-64.589c-0.578-10.282,14.258-12.071,16.26-2.098c3.94,21.247,7.698,42.518,11.318,63.806
				l-9.814-9.733c38.603,3.058,77.36,5.691,115.967,5.798c37.56,0.113,75.912-1.978,111.96-11.233c0,0-8.577,5.192-8.577,5.192
				c15.194-22.97,22.711-53.38,31.287-80.027c8.674-29.456,16.363-59.734,23.239-89.622l17.021,22.236
				c-70.016-3.139-165.646-8.737-235.532-13.9c-26.145-2.11-52.297-4.054-78.43-6.502l11.819-12.083
				c0.433,24.505,0.784,49.202,0.027,73.722C1131.333,2566.153,1115.183,2565.772,1116.626,2554.812L1116.626,2554.812z"/>
		</g>
		<g>
			<path style="fill:#040A56;" d="M543.083,2461.879c-3.85-21.809-7.063-43.698-9.929-65.64c0,0,6.152,8.174,6.152,8.174
				c-29.667-9.511-61.784-20.806-91.172-31.303c0,0,17.121-11.219,17.121-11.219c-0.747,20.637-0.334,41.741,0.415,62.346
				c1.215,17.704,1.917,41.452,9.421,56.17c10.953,16.397,26.586,29.491,41.096,42.986c15.618,13.83,31.797,27.447,48.043,40.643
				l-13.899,9.043c-2.886-17.07-5.51-34.197-7.915-51.37c-0.945-7.187,9.426-9.288,11.45-2.453
				c4.841,16.651,9.465,33.349,13.828,50.104c2.211,7.939-7.569,14.223-13.901,9.042c-26.931-18.006-52.744-37.185-76.907-58.924
				c-10.712-10.36-22.118-20.991-27.842-35.3c-1.948-4.996-3.674-12.117-4.81-17.39c-6.157-35.224-5.822-70.629-4.251-106.113
				c0.184-6.955,6.061-12.438,13.015-12.115c2.262-0.49,23.879,9.1,26.443,9.927c21.78,8.752,45.942,18.921,67.441,28.344
				c3.249,1.405,5.237,4.521,5.371,7.837c0.43,11.041,0.618,22.102,0.845,33.159c0.173,11.062,0.222,22.134,0.098,33.22
				c-0.032,2.815-2.339,5.071-5.154,5.039C545.554,2466.056,543.503,2464.244,543.083,2461.879L543.083,2461.879z"/>
		</g>
		<g>
			<path style="fill:#4D9DF4;" d="M2465.796,1868.414c0,0-0.518-85.205,28.992-92.045s194.147-21.453,203.984-3.896
				c9.837,17.558,8.801,112.302-30.028,123.691s-169.814,15.738-169.814,15.738l-18.266,24.383
				c-6.04,8.935-18.228,11.191-27.067,5.012l0,0c-7.743-5.413-10.433-15.634-6.359-24.158L2465.796,1868.414z"/>
		</g>
		<g>
			<path style="fill:#040A56;" d="M2464.58,1960.455c-7.095,0-14.009-2.166-19.956-6.323c-13.882-9.7-18.784-27.717-11.826-43.081
				l17.334-45.515c0.122-25.845,3.955-95.808,41.123-104.424c15.566-3.608,64.331-9.082,112.119-11.482
				c90.283-4.534,103.125,4.595,109.058,15.19c10.283,18.342,10.146,74.861-4.082,109.751
				c-8.086,19.822-19.927,32.144-35.195,36.621c-35.176,10.317-137.271,14.956-166.172,16.086l-13.589,18.132
				c-5.288,7.629-13.213,12.754-22.358,14.448C2468.882,1960.257,2466.724,1960.455,2464.58,1960.455z M2647.163,1779.786
				c-49.272,0-126.006,6.548-148.838,11.838c-7.759,1.799-17.07,37.546-16.87,76.702c0.01,1.931-0.337,3.857-1.025,5.662
				l-18.56,48.726c-0.151,0.4-0.317,0.791-0.503,1.177c-0.771,1.621-0.269,3.542,1.201,4.57c1.04,0.728,2.08,0.728,2.759,0.601
				c0.688-0.129,1.655-0.5,2.363-1.545c0.142-0.21,0.288-0.417,0.439-0.62l18.267-24.382c2.847-3.801,7.266-6.106,12.017-6.262
				c35.884-1.194,135.645-6.233,165.923-15.115c6.665-1.953,11.494-10.259,14.37-16.882c11.382-26.189,10.957-68.289,7.329-81.519
				C2679.258,1780.645,2665.015,1779.786,2647.163,1779.786z"/>
		</g>
		<g>
			<path style="fill:#040A56;" d="M2470.293,2038.304c110.211,141.133,160.521,331.788,119.109,507.574
				c0,0-12.432-18.517-12.432-18.517c81.397,12.427,164.338-4.887,239.688-37.019c0,0-6.216,4.825-6.216,4.825
				c37.411-49.688,72.835-101.882,105.808-154.763c51.349-85.626,174.79-287.365,95.203-377.113
				c-30.323-33.264-79.756-43.339-123.179-42.313c-3.875,0.159-7.144-2.854-7.302-6.729c-0.154-3.749,2.683-6.934,6.377-7.278
				c33.188-2.681,66.008,1.017,96.848,14.083c208.117,94.024-64.53,476.996-149.11,593.019c-1.67,2.215-3.814,3.836-6.218,4.827
				c-39.883,17.017-81.724,30.516-125.066,37.46c-43.252,7.068-87.871,7.822-131.428,0.951c-8.29-1.253-13.987-9.025-12.676-17.31
				c31.898-126.321,14.461-261.028-36.61-380.065c-17.015-39.669-37.673-78.711-62.313-114.033
				C2456.231,2039.768,2464.929,2032.106,2470.293,2038.304L2470.293,2038.304z"/>
		</g>
		<g>
			<path style="fill:#040A56;" d="M2894.119,2035.699c1.093,72.11-10.123,144.235-27.207,214.005c0,0-12.763,51.904-12.763,51.904
				c-5.935,30.203-26.584,89.912,3.627,108.562c5.62,3.626,13.416,5.918,20.946,7.891c8.362,2.216,13.342,10.789,11.128,19.149
				c-2.237,8.501-11.105,13.498-19.536,11.021c-9.746-2.852-19.709-6.086-29.248-12.479
				c-29.478-18.437-31.508-57.337-25.363-87.546c5.416-31.801,18.524-73.545,26.786-104.713
				c9.258-34.132,17.312-68.377,22.989-103.042c5.725-34.665,8.926-69.706,9.565-104.829
				C2875.486,2023.412,2893.669,2023.148,2894.119,2035.699L2894.119,2035.699z"/>
		</g>
		<g>
			<path style="fill:#040A56;" d="M3006.104,1944.784c-0.22-0.139-58.05-28.486-58.05,20.439
				c0,48.925,1.035,149.364-17.603,241.001c-18.638,91.637-37.983,167.472-5.789,148.969
				c32.193-18.502,108.605-204.181,116.218-247.784C3048.492,2063.806,3061.048,1979.483,3006.104,1944.784z"/>
		</g>
		<g>
			<path style="fill:#3B7BE2;" d="M3262.448,2013.742c0,0-0.209,0.104-0.575,0.261
				C3262.082,2013.951,3262.239,2013.847,3262.448,2013.742z"/>
		</g>
		<g style="opacity:0.32;">
			<path style="fill:#FFFFFF;" d="M1584.222,2075.012c-26.102,11.349-27.493,47.88-2.551,61.593
				c24.25,13.333,51.478,28.737,70,40.512c40.9,26.001,265.075-111.196,319.436-142.777
				C2018.804,2006.63,1739.882,2007.332,1584.222,2075.012z"/>
		</g>
		<g style="opacity:0.32;">
			<path style="fill:#FFFFFF;" d="M2465.534,2004.311c0,0,238.018-14.991,361.822-59.527
				C2765.815,2120.281,2544.422,2080.758,2465.534,2004.311z"/>
		</g>
	</g>
</g>
</svg>
