<?xml version="1.0" encoding="UTF-8"?>
<svg version="1.1" xmlns="http://www.w3.org/2000/svg" width="2084" height="2084">
<path d="M0 0 C687.72 0 1375.44 0 2084 0 C2084 687.72 2084 1375.44 2084 2084 C1396.28 2084 708.56 2084 0 2084 C0 1396.28 0 708.56 0 0 Z " fill="#30C77B" transform="translate(0,0)"/>
<path d="M0 0 C75.57 0 151.14 0 229 0 C229 208.89 229 417.78 229 633 C234.54573013 628.36895764 234.54573013 628.36895764 239.25 623.3125 C242.17264409 619.8698359 245.2846808 616.66695628 248.5 613.5 C251.5951803 610.44690625 254.6193629 607.37673948 257.4375 604.0625 C260.93710497 599.95573465 264.75982009 596.21275194 268.59521484 592.42431641 C271.95044557 589.09433671 275.09717875 585.66077511 278.16015625 582.05859375 C280.95766867 578.92846838 283.96624506 576.01314342 286.95336914 573.06616211 C289.58040002 570.4607863 292.10000568 567.81537795 294.5 565 C297.34122801 561.66702099 300.38421623 558.57391199 303.5 555.5 C306.59491502 552.44662049 309.61934277 549.37676315 312.4375 546.0625 C315.93710497 541.95573465 319.75982009 538.21275194 323.59521484 534.42431641 C326.95044557 531.09433671 330.09717875 527.66077511 333.16015625 524.05859375 C335.95835792 520.92769719 338.96773656 518.01170305 341.95556641 515.06396484 C344.56120739 512.47977682 347.06053109 509.85790842 349.4375 507.0625 C352.93710497 502.95573465 356.75982009 499.21275194 360.59521484 495.42431641 C363.95044557 492.09433671 367.09717875 488.66077511 370.16015625 485.05859375 C372.95835792 481.92769719 375.96773656 479.01170305 378.95556641 476.06396484 C381.56120739 473.47977682 384.06053109 470.85790842 386.4375 468.0625 C389.93710497 463.95573465 393.75982009 460.21275194 397.59521484 456.42431641 C400.95044557 453.09433671 404.09717875 449.66077511 407.16015625 446.05859375 C409.95835792 442.92769719 412.96773656 440.01170305 415.95556641 437.06396484 C418.56120739 434.47977682 421.06053109 431.85790842 423.4375 429.0625 C426.93710497 424.95573465 430.75982009 421.21275194 434.59521484 417.42431641 C437.95044557 414.09433671 441.09717875 410.66077511 444.16015625 407.05859375 C446.95835792 403.92769719 449.96773656 401.01170305 452.95556641 398.06396484 C455.56120739 395.47977682 458.06053109 392.85790842 460.4375 390.0625 C463.93710497 385.95573465 467.75982009 382.21275194 471.59521484 378.42431641 C474.95044557 375.09433671 478.09717875 371.66077511 481.16015625 368.05859375 C483.95766867 364.92846838 486.96624506 362.01314342 489.95336914 359.06616211 C492.58040002 356.4607863 495.10000568 353.81537795 497.5 351 C500.34122801 347.66702099 503.38421623 344.57391199 506.5 341.5 C509.59491502 338.44662049 512.61934277 335.37676315 515.4375 332.0625 C518.93710497 327.95573465 522.75982009 324.21275194 526.59521484 320.42431641 C529.95044557 317.09433671 533.09717875 313.66077511 536.16015625 310.05859375 C538.95835792 306.92769719 541.96773656 304.01170305 544.95556641 301.06396484 C547.56120739 298.47977682 550.06053109 295.85790842 552.4375 293.0625 C555.93106137 288.96282678 559.74636959 285.2256914 563.57543945 281.4440918 C567.11178736 277.93462349 570.47116165 274.3250482 573.6953125 270.5234375 C576.68978788 267.02689439 576.68978788 267.02689439 579.83857918 266.75390434 C581.06087667 266.75574793 582.28317417 266.75759151 583.54251099 266.75949097 C584.22208953 266.75778212 584.90166807 266.75607327 585.6018399 266.75431263 C587.88977629 266.75100595 590.17742245 266.76204054 592.46533203 266.77294922 C594.10107415 266.77351308 595.73681677 266.77319727 597.37255859 266.77206421 C601.82275549 266.77148871 606.27284529 266.78327479 610.72301722 266.79721212 C615.37017942 266.80968675 620.01734389 266.8108874 624.66452026 266.81326294 C633.46888689 266.81948734 642.27320405 266.83591111 651.07754886 266.85596192 C661.09916305 266.87829109 671.12077956 266.88930683 681.14241242 266.89935279 C701.76163593 266.92027653 722.38081485 266.95547111 743 267 C744.18340345 287.12138182 745.05671203 307.23548678 745.5906086 327.38477135 C745.84548753 336.74904722 746.19164756 346.09120388 746.77197266 355.44140625 C750.86694046 422.73477085 750.86694046 422.73477085 730.30589366 445.97171235 C719.91814069 457.29530756 707.95644821 466.94425054 695.60998154 476.03177261 C689.53631614 480.6120175 684.05615018 485.79305839 678.7109375 491.19140625 C677.85063934 492.05389481 677.85063934 492.05389481 676.97296143 492.93380737 C675.74315442 494.16738376 674.5145024 495.40211252 673.28692627 496.63790894 C671.33743245 498.6003164 669.38470075 500.55945154 667.43115234 502.51782227 C663.28460091 506.67572975 659.14200367 510.83756277 655 515 C650.19533921 519.82836341 645.38901607 524.65504776 640.57843018 529.47750854 C638.66657521 531.39578514 636.75778794 533.31707743 634.84912109 535.23852539 C625.2366928 544.89106485 625.2366928 544.89106485 621.01367188 548.48632812 C615.40028757 553.26807261 610.29497952 558.59567995 605.10173035 563.82310486 C603.11862966 565.81911524 601.13229426 567.81185706 599.1451416 569.80383301 C594.9272615 574.03307105 590.71333448 578.26623403 586.5 582.5 C581.61273167 587.4109679 576.72380286 592.32025891 571.83061218 597.22532654 C569.88551955 599.17684251 567.94349334 601.13137385 566.00158691 603.08605957 C555.33933188 613.79204108 555.33933188 613.79204108 549.59594727 618.63014221 C546.74604035 621.07631776 544.13222533 623.76162807 541.5 626.4375 C540.695625 627.24864258 540.695625 627.24864258 539.875 628.07617188 C538.58095964 629.38176617 537.29011826 630.69052996 536 632 C536.75394043 632.01981934 537.50788086 632.03963867 538.28466797 632.06005859 C583.84743511 633.31547964 625.8113565 641.60986155 663 670 C663.95390625 670.72445312 664.9078125 671.44890625 665.890625 672.1953125 C690.24768105 691.49578674 709.80055512 714.33144127 724 742 C724.32693848 742.62406738 724.65387695 743.24813477 724.99072266 743.89111328 C740.54314822 773.83460835 743.26819458 805.53621802 743.48133504 838.64010513 C743.50250497 841.69194077 743.53067081 844.74369771 743.55872711 847.79547662 C743.82375829 876.72691245 743.94672476 905.66013564 744.04506969 934.59256077 C744.05806406 938.34873598 744.07127737 942.10491034 744.0847168 945.86108398 C744.08804507 946.79447056 744.09137335 947.72785714 744.09480248 948.68952816 C744.15064073 963.82536665 744.27239497 978.95996281 744.41986855 994.09515596 C744.57045405 1009.67978517 744.65622313 1025.26377103 744.68084508 1040.84911484 C744.69636135 1049.582271 744.74039734 1058.31323111 744.85854149 1067.0456562 C744.95903334 1074.47690339 745.00108344 1081.90563352 744.96854981 1089.33753795 C744.95377375 1093.12302965 744.9656021 1096.9031299 745.05340958 1100.68774986 C745.60214606 1125.63625736 745.60214606 1125.63625736 737.17186481 1134.81313413 C734.31369858 1137.51732257 731.36175851 1139.9838176 728.20923579 1142.33681571 C722.17790947 1146.87739359 716.76709881 1152.10935196 711.5 1157.5 C707.51478981 1161.5353673 703.48480851 1165.39423007 699.15625 1169.0625 C696.15385317 1171.76030585 693.33739183 1174.63043819 690.5 1177.5 C686.51223169 1181.5329811 682.48505095 1185.39402462 678.15625 1189.0625 C674.54914646 1192.3036655 671.18821105 1195.79262379 667.77954102 1199.23999023 C664.33963479 1202.70386446 660.8144615 1205.97124934 657.08984375 1209.12890625 C653.72734897 1212.13943896 650.59888032 1215.38125164 647.42822266 1218.59130859 C644.0844625 1221.96048853 640.68697236 1225.18282182 636.98094177 1228.1577301 C634.9154566 1229.92519663 634.9154566 1229.92519663 633.55116272 1232.26133728 C630.86816973 1236.02728598 628.25295049 1238.52732846 623.60215378 1239.50307083 C615.96644475 1240.30712684 608.28461564 1240.03000662 600.62109375 1239.87890625 C598.12291257 1239.86210714 595.62470161 1239.84930213 593.1264801 1239.84031677 C587.23991123 1239.80955144 581.35490764 1239.73874391 575.46897799 1239.64817137 C568.10393923 1239.53732184 560.73870742 1239.48928563 553.37304688 1239.43945312 C540.24792734 1239.34311246 527.12406036 1239.19137777 514 1239 C513.99910437 1237.80911496 513.99910437 1237.80911496 513.99819064 1236.59417164 C513.96229589 1189.53871907 513.90565568 1142.48333067 513.82207905 1095.4279374 C513.8120616 1089.77780488 513.80221747 1084.12767207 513.79248047 1078.47753906 C513.7905391 1077.3527004 513.78859772 1076.22786173 513.78659752 1075.06893705 C513.75557732 1056.85625736 513.73859681 1038.64359027 513.72680578 1020.43088914 C513.71439434 1001.74265982 513.68689304 983.05449662 513.64538693 964.36630905 C513.62025141 952.83490656 513.60688277 941.30361374 513.60857043 929.77218346 C513.60860018 921.86440472 513.59397113 913.95673769 513.56783572 906.04900248 C513.55318966 901.48679349 513.54498697 896.92481357 513.55419731 892.36258507 C513.5624935 888.18239719 513.55230412 884.00266928 513.52766338 879.82254957 C513.52198677 878.31364346 513.52298435 876.80469365 513.53148755 875.29580082 C513.59212326 863.52350299 511.73774017 854.36279193 504.125 845.109375 C495.50676752 836.55451188 486.35128277 833.69821481 474.5597229 833.7215271 C473.50920695 833.7157347 472.45869099 833.7099423 471.37634122 833.70397437 C467.85714557 833.68697253 464.33808106 833.68409766 460.81884766 833.68115234 C458.29582396 833.67185431 455.77280334 833.66168583 453.24978638 833.65071106 C447.81834425 833.62904442 442.38693843 833.61343345 436.95546341 833.60334396 C429.10251777 833.58874588 421.24963756 833.56320589 413.39673035 833.53501268 C400.655292 833.48956521 387.91384421 833.45294195 375.17236328 833.421875 C362.7966954 833.39168108 350.42105058 833.35732694 338.04541016 833.31738281 C337.28231563 833.31492126 336.5192211 833.31245972 335.7330025 833.30992357 C331.90470384 833.29754881 328.07640545 833.28509231 324.24810719 833.27259517 C292.49876927 833.16905799 260.74940625 833.07999178 229 833 C229.00607553 833.61639927 229.01215105 834.23279855 229.01841068 834.86787659 C229.3768693 871.44340769 229.65118888 908.01867794 229.81704527 944.59560752 C229.83705532 948.99253362 229.8577646 953.38945616 229.87890625 957.78637695 C229.88310322 958.66168304 229.88730018 959.53698913 229.89162433 960.43881964 C229.96114719 974.59093396 230.08724289 988.74200282 230.23444474 1002.89349801 C230.38434919 1017.42659465 230.47299841 1031.9591458 230.50541592 1046.49298376 C230.52731463 1055.45371522 230.5963287 1064.41149156 230.72666347 1073.37131261 C230.81158985 1079.52499863 230.83672609 1085.6771692 230.81602204 1091.83139796 C230.80582223 1095.37747013 230.82083855 1098.9184023 230.9072876 1102.46354675 C231.42408103 1124.74411275 231.42408103 1124.74411275 225.50924683 1131.90688896 C222.25255436 1135.21618274 218.73011544 1137.97698545 214.91540337 1140.6115092 C212.11696474 1142.64011913 209.87211994 1144.99030429 207.5 1147.5 C204.79098649 1150.24501369 202.05881379 1152.87227721 199.125 1155.375 C195.56713747 1158.41430767 192.28558612 1161.67364346 189 1165 C185.77602502 1168.2638325 182.564821 1171.46830186 179.0625 1174.4375 C175.34042307 1177.60009982 171.93133928 1181.02970696 168.5 1184.5 C164.51223443 1188.53298474 160.48505092 1192.39402465 156.15625 1196.0625 C153.15385317 1198.76030585 150.33739183 1201.63043819 147.5 1204.5 C143.51223169 1208.5329811 139.48505095 1212.39402462 135.15625 1216.0625 C131.55760092 1219.29606874 128.20411891 1222.77625969 124.80371094 1226.21582031 C120.69976449 1230.34868476 116.45471004 1234.24603086 112 1238 C111.67 1238.33 111.34 1238.66 111 1239 C109.55786001 1239.09558036 108.11105921 1239.12188394 106.66575623 1239.12025452 C105.73041046 1239.12162918 104.7950647 1239.12300385 103.83137512 1239.12442017 C102.79703842 1239.12082489 101.76270172 1239.11722961 100.69702148 1239.11352539 C99.61422913 1239.11367142 98.53143677 1239.11381744 97.41583252 1239.1139679 C93.81756626 1239.11326823 90.21935103 1239.10547333 86.62109375 1239.09765625 C84.13387582 1239.09579226 81.64665752 1239.09436827 79.15943909 1239.09336853 C73.26978809 1239.0899335 67.3801561 1239.08204277 61.49051291 1239.07201904 C54.12974626 1239.05976246 46.76897736 1239.05437791 39.40820312 1239.04882812 C26.27212602 1239.03808815 13.13606417 1239.02120089 0 1239 C-0.29759083 1181.51194289 -0.5266697 1124.02395616 -0.66384928 1066.53528084 C-0.68006418 1059.74739616 -0.69691945 1052.95951313 -0.71411133 1046.17163086 C-0.7158112 1045.49616699 -0.71751106 1044.82070311 -0.71926244 1044.12477064 C-0.77462722 1022.24408404 -0.87224896 1000.36383483 -0.99186387 978.48341304 C-1.11807656 955.35400467 -1.19597064 932.2248564 -1.22315043 909.09507912 C-1.24098348 895.24306503 -1.29729298 881.39230683 -1.40291407 867.54067936 C-1.47166196 858.04051438 -1.49239492 848.54099812 -1.47551791 839.04060248 C-1.467195 833.55978458 -1.47989762 828.08116004 -1.54967117 822.6007328 C-1.61315611 817.57745974 -1.61600267 812.5578441 -1.57168563 807.53439905 C-1.56621309 805.72253106 -1.58253445 803.91043058 -1.62348137 802.09901706 C-1.80897069 793.38277339 -1.63507954 786.87537733 4.54614751 780.27381323 C7.24491289 777.68726702 10.07572371 775.32465389 13 773 C14.4633453 771.71401423 15.92325603 770.42406826 17.375 769.125 C17.99117187 768.60164063 18.60734375 768.07828125 19.2421875 767.5390625 C21.65881986 765.42316661 23.87825843 763.13368558 26.12670898 760.84204102 C27.93320486 759.06568087 29.79398787 757.40516832 31.71484375 755.75390625 C35.93292779 752.08596497 40.00692347 748.28338749 44.0625 744.4375 C45.56095214 743.02187522 47.05965478 741.60651555 48.55859375 740.19140625 C49.30351074 739.48773926 50.04842773 738.78407227 50.81591797 738.05908203 C54.07509986 734.98643056 57.34858528 731.92925549 60.625 728.875 C61.23400146 728.30724854 61.84300293 727.73949707 62.47045898 727.15454102 C63.69638296 726.01180764 64.92237557 724.86914787 66.1484375 723.7265625 C68.0376893 721.96485513 69.92532458 720.20143131 71.8125 718.4375 C72.44373779 717.84775391 73.07497559 717.25800781 73.7253418 716.65039062 C74.97998162 715.47782401 76.23406178 714.30465823 77.48754883 713.13085938 C80.55737654 710.26053999 83.64218215 707.41003219 86.76171875 704.59375 C87.35968262 704.05121582 87.95764648 703.50868164 88.57373047 702.94970703 C89.69969158 701.92998657 90.8299725 700.91500746 91.96533203 699.90576172 C94.6362257 697.48149112 96.68508143 695.39488066 98 692 C97.33097656 691.40316406 96.66195312 690.80632813 95.97265625 690.19140625 C88.80030911 683.71222554 81.91585395 676.99794792 75.14086914 670.10375977 C71.88041743 666.80317467 68.5990387 663.60106086 65.078125 660.578125 C59.428533 655.71465947 54.29186021 650.33667337 49.06640625 645.02734375 C44.8453859 640.7652762 40.56031609 636.69341441 36.00976562 632.78710938 C31.3565815 628.64943836 27.07451638 624.10991768 22.7109375 619.671875 C19.21304203 616.13791875 15.70604819 612.68345654 11.9375 609.4375 C11.03055388 608.64385921 11.03055388 608.64385921 10.10528561 607.83418527 C8.72102849 606.62818072 7.31947249 605.44169987 5.90008572 604.27724466 C2.08238936 600.89502125 -0.45292804 598.3752023 -0.99358797 593.17201853 C-1.03121183 591.34053944 -1.02539899 589.507836 -0.98438263 587.67642975 C-0.99822876 586.14811242 -0.99822876 586.14811242 -1.01235461 584.58892 C-1.0335542 581.17008355 -0.99763176 577.75425347 -0.96203613 574.33557129 C-0.96552453 571.86202905 -0.9725288 569.38848969 -0.98274946 566.91496611 C-0.99691676 561.53491615 -0.98623289 556.15576796 -0.9536438 550.77585983 C-0.90532114 542.77635517 -0.90296107 534.77729644 -0.90997971 526.77767243 C-0.92048661 513.32064553 -0.89377648 499.86393307 -0.84584045 486.40699768 C-0.79850094 473.08336328 -0.76771228 459.75985985 -0.75901794 446.43614197 C-0.75846803 445.60765651 -0.75791811 444.77917105 -0.75735153 443.92557998 C-0.75464486 439.71810491 -0.75223379 435.51062972 -0.74993652 431.30315441 C-0.7331341 401.50312057 -0.6792378 371.70325779 -0.60351562 341.90332031 C-0.53003843 312.95345977 -0.47337042 284.00364605 -0.43945312 255.05371094 C-0.43840092 254.16131771 -0.43734871 253.26892449 -0.43626461 252.34948904 C-0.42571643 243.38769319 -0.41550992 234.42589698 -0.40555374 225.46410045 C-0.38526414 207.20795737 -0.36269412 188.95181734 -0.33874512 170.69567871 C-0.3376468 169.85629465 -0.33654848 169.0169106 -0.33541688 168.15209066 C-0.30163277 142.42449344 -0.25818331 116.69692519 -0.2052002 90.96936035 C-0.20369973 90.23893933 -0.20219927 89.50851831 -0.20065334 88.75596332 C-0.13973132 59.17062895 -0.06857978 29.58531737 0 0 Z " fill="#FDF895" transform="translate(670,422)"/>
<path d="M0 0 C2.8846448 1.96025782 5.21073814 3.9488537 7.42578125 6.6484375 C8.10640625 7.3703125 8.78703125 8.0921875 9.48828125 8.8359375 C15.06403494 16.9297735 16.56615007 24.91328893 15.42578125 34.6484375 C13.50021189 43.46014894 7.74960485 51.13091119 0.23828125 56.09375 C-1.67815056 57.07374354 -3.55941171 57.89493243 -5.57421875 58.6484375 C-6.34894531 59.00164063 -7.12367187 59.35484375 -7.921875 59.71875 C-15.52879776 62.38509406 -24.10756272 61.2542267 -31.296875 57.8984375 C-40.56909434 52.80905467 -46.26540198 45.81336109 -49.57421875 35.6484375 C-50.78017658 25.06151921 -49.97202849 16.49479171 -43.57421875 7.6484375 C-31.9797212 -5.55278818 -15.34529454 -8.84586668 0 0 Z " fill="#31C77B" transform="translate(1334.57421875,753.3515625)"/>
</svg>
